<svg xmlns="http://www.w3.org/2000/svg" xmlns:xlink="http://www.w3.org/1999/xlink" version="1.1" x="0px" y="0px" viewBox="0 0 100 125" enable-background="new 0 0 100 100" xml:space="preserve"><path d="M47.353,72.186c-0.764-0.764-0.764-2.002,0-2.766l11.549-11.554c0.248-0.249,0.248-0.651,0-0.9l-11.551-11.56  c-0.763-0.763-0.763-2-0.001-2.764l11.552-11.574c0.248-0.249,0.248-0.651,0-0.9L45.905,17.171  C35.849,7.712,20.203,7.88,10.85,18.545c-8.42,9.601-7.525,24.234,1.504,33.263l2.787,2.787L48.75,88.205  c0.962,0.962,2.522,0.962,3.484,0l5.036-5.036c0.293-0.293,0.293-0.769,0-1.063L47.353,72.186z"/><path d="M84.891,15.158c-9.376-6.947-22.338-6.011-31.091,1.5c-0.159,0.136-0.367,0.325-0.576,0.519  c-0.499,0.462-0.522,1.227-0.043,1.709C55.791,21.512,63.5,29.233,63.5,29.233c0.763,0.763,0.764,2.001,0.001,2.765L51.95,43.571  c-0.248,0.249-0.248,0.651,0,0.899l11.551,11.562c0.763,0.764,0.763,2.002,0,2.765L51.952,70.353c-0.248,0.249-0.248,0.651,0,0.9  l8.085,8.087c0.293,0.294,0.769,0.294,1.063,0l23.975-23.975l2.765-2.765C98.353,42.087,97.303,24.355,84.891,15.158z"/></svg>