<svg xmlns="http://www.w3.org/2000/svg" xmlns:xlink="http://www.w3.org/1999/xlink" version="1.1" x="0px" y="0px" viewBox="0 0 512 640" style="enable-background:new 0 0 512 512;" xml:space="preserve"><g><path d="M248.103,472.789c0,5.523,4.477,10,10,10s10-4.477,10-10v-55.212h-20V472.789z"/><path d="M297.642,380.003l1.008-12.426h-85.743l0.976,12.36c1.223,15.499,14.36,27.64,29.907,27.64h23.951   C283.252,407.577,296.387,395.465,297.642,380.003z"/><path d="M256,29.211c-31.602,0-58.943,18.564-71.711,45.355h143.422C314.943,47.774,287.602,29.211,256,29.211z"/><path d="M334.745,118.566c0.411-3.267,0.647-6.587,0.647-9.963c0-4.792-0.451-9.477-1.268-14.037h-156.25   c-0.817,4.56-1.268,9.246-1.268,14.037c0,3.376,0.236,6.696,0.647,9.963H334.745z"/><path d="M182.497,138.566c11.851,28.964,40.325,49.43,73.503,49.43s61.653-20.466,73.503-49.43H182.497z"/><path d="M313.059,189.939c-16.16,11.371-35.843,18.057-57.059,18.057c-21.242,0-40.946-6.702-57.116-18.097l12.445,157.678h88.944   L313.059,189.939z"/></g></svg>