<svg xmlns="http://www.w3.org/2000/svg" xmlns:xlink="http://www.w3.org/1999/xlink" version="1.1" x="0px" y="0px" viewBox="0 0 512 640" style="enable-background:new 0 0 512 512;" xml:space="preserve"><g><path d="M173.543,63.304l44.806,53.959c12.185-2.406,24.771-3.68,37.651-3.68s25.467,1.273,37.651,3.68l44.806-53.959   l-37.992-32.887h-88.93L173.543,63.304z"/><path d="M256,481.583c95.944,0,174-78.056,174-174s-78.056-174-174-174s-174,78.056-174,174S160.056,481.583,256,481.583z    M256,162.5c79.999,0,145.083,65.084,145.083,145.083S335.999,452.666,256,452.666s-145.083-65.084-145.083-145.083   S176.001,162.5,256,162.5z"/></g></svg>