<svg xmlns="http://www.w3.org/2000/svg" xmlns:xlink="http://www.w3.org/1999/xlink" version="1.1" x="0px" y="0px" viewBox="0 0 100 125" enable-background="new 0 0 100 100" xml:space="preserve"><path d="M11.418,88.582l29.164-29.164C41.843,58.157,40.95,56,39.166,56H10.002C8.896,56,8,56.896,8,58.002v29.164  C8,88.95,10.157,89.843,11.418,88.582z"/><path d="M86,13H14c-3.314,0-6,2.686-6,6v45c0,3.314,2.686,6,6,6h72c3.314,0,6-2.686,6-6V19C92,15.686,89.314,13,86,13z M69,56H19v-4  h50V56z M81,43H19v-4h62V43z M81,31H19v-4h62V31z"/></svg>